<?xml version="1.0" standalone="no"?>
<!DOCTYPE svg PUBLIC "-//W3C//DTD SVG 20010904//EN"
 "http://www.w3.org/TR/2001/REC-SVG-20010904/DTD/svg10.dtd">
<svg version="1.0" xmlns="http://www.w3.org/2000/svg"
 width="300.000000pt" height="300.000000pt" viewBox="0 0 300.000000 300.000000"
 preserveAspectRatio="xMidYMid meet">
<metadata>
Created by potrace 1.10, written by Peter Selinger 2001-2011
</metadata>
<g transform="translate(0.000000,300.000000) scale(0.100000,-0.100000)"
fill="#000000" stroke="none">
<path d="M1235 2974 c-306 -56 -567 -195 -791 -418 -180 -181 -287 -351 -364
-585 -56 -166 -72 -275 -72 -471 0 -196 16 -305 72 -471 78 -235 184 -405 364
-584 210 -210 421 -329 709 -401 85 -22 133 -27 289 -31 119 -4 216 -1 270 6
642 91 1160 597 1263 1236 19 117 19 373 0 490 -95 589 -534 1060 -1127 1211
-92 24 -125 27 -318 30 -160 2 -236 -1 -295 -12z m580 -29 c555 -125 981 -538
1119 -1085 97 -383 37 -781 -169 -1126 -31 -52 -60 -94 -65 -92 -5 2 -42 47
-83 100 l-75 97 -36 -55 c-51 -77 -175 -204 -264 -271 -145 -109 -338 -194
-522 -230 -115 -22 -328 -22 -442 0 -184 36 -354 109 -499 213 -90 65 -240
216 -284 286 -17 26 -32 46 -35 45 -3 -1 -41 -40 -85 -87 -44 -47 -83 -86 -86
-88 -19 -9 -149 245 -195 383 -273 817 219 1702 1061 1904 138 34 207 40 380
37 129 -3 183 -9 280 -31z m802 -2254 l52 -68 -19 -31 c-23 -38 -168 -186
-230 -235 -128 -100 -313 -202 -460 -251 -123 -41 -364 -86 -461 -86 -95 0
-295 36 -429 77 -123 37 -311 130 -415 203 -89 63 -269 234 -314 298 l-22 32
62 65 c34 36 68 65 74 65 7 0 25 -17 41 -37 15 -21 52 -64 82 -95 l54 -57 -12
-38 c-7 -21 -21 -54 -31 -74 -19 -36 -19 -37 0 -60 17 -21 22 -22 45 -11 15 7
28 12 29 12 1 0 2 -14 2 -32 0 -24 6 -35 25 -45 14 -6 34 -19 45 -28 54 -42
98 -66 108 -56 6 6 22 -4 47 -30 38 -40 57 -46 90 -29 15 8 25 3 54 -26 34
-34 39 -36 80 -30 32 5 46 3 56 -9 7 -8 23 -15 37 -15 13 0 33 -5 44 -11 15
-7 24 -7 34 1 10 9 20 7 39 -6 21 -13 29 -14 40 -4 11 8 20 8 34 1 11 -6 32
-10 48 -10 16 0 36 0 44 0 108 0 180 7 193 18 12 9 21 10 36 1 18 -9 27 -5 65
30 44 41 45 41 58 21 20 -33 51 -26 87 20 l33 40 22 -20 c26 -25 39 -26 56 -6
7 8 22 15 35 15 12 0 30 9 40 20 10 11 31 20 46 20 16 0 42 12 61 28 18 15 46
33 61 40 42 18 137 104 137 124 0 9 -18 39 -41 68 l-41 52 64 67 c34 37 80 88
101 113 20 26 43 45 50 42 6 -3 35 -36 64 -73z m-1897 -222 c0 -12 -14 -11
-27 2 -8 8 -20 -1 -44 -30 -22 -28 -36 -38 -43 -31 -6 6 1 23 22 49 27 33 29
41 17 51 -8 7 -12 16 -9 21 6 10 84 -47 84 -62z m1643 -9 c24 -31 33 -51 26
-55 -6 -4 -14 -3 -17 1 -4 5 -22 25 -41 46 -18 20 -30 41 -27 47 11 18 19 13
59 -39z m-68 -10 c18 -36 19 -40 2 -40 -19 0 -60 47 -52 59 12 20 34 11 50
-19z m-1556 -57 c-18 -26 -34 -50 -36 -52 -2 -3 -8 0 -14 6 -8 8 0 26 27 62
48 69 70 54 23 -16z m1547 -33 c6 0 17 7 24 15 12 14 30 12 30 -3 0 -4 -16
-17 -34 -29 l-35 -22 -36 51 c-28 39 -34 53 -24 59 10 6 21 -4 39 -31 14 -22
30 -40 36 -40z m-97 25 c18 -32 19 -36 5 -42 -10 -4 -24 4 -39 23 -21 26 -21
30 -6 41 9 7 17 13 18 13 0 0 10 -16 22 -35z m-1340 8 c39 -23 45 -39 22 -62
-10 -10 -21 -30 -25 -45 -3 -14 -11 -26 -16 -26 -16 0 -22 20 -10 35 6 8 9 19
5 25 -9 15 -35 12 -41 -5 -6 -14 -34 -22 -34 -10 0 11 55 105 62 105 3 0 20
-8 37 -17z m1291 -63 c23 -44 23 -45 52 -29 13 7 23 8 30 1 7 -7 -3 -17 -30
-31 l-40 -21 -30 53 c-16 28 -28 55 -25 60 9 16 24 5 43 -33z m-1180 5 c0 -3
-9 -24 -20 -46 -12 -22 -18 -44 -15 -49 14 -22 37 -7 57 36 14 34 23 43 31 35
13 -13 -25 -98 -48 -107 -21 -9 -65 23 -65 46 0 29 32 90 47 90 7 0 13 -2 13
-5z m1110 -66 l44 -52 -38 7 c-32 6 -38 4 -43 -13 -3 -11 -11 -22 -18 -25 -9
-3 -14 12 -17 57 -3 34 -3 65 -1 70 10 17 33 4 73 -44z m-930 -9 c11 -11 20
-24 20 -30 0 -16 -27 -11 -34 6 -3 9 -15 14 -28 12 -17 -2 -24 -11 -26 -32 -4
-34 14 -49 39 -33 10 6 21 8 25 4 12 -11 -17 -37 -42 -37 -51 0 -72 67 -34
108 26 27 54 28 80 2z m784 4 c27 -26 18 -56 -20 -68 -16 -5 -20 -12 -16 -33
9 -49 -20 -19 -38 39 l-17 56 31 10 c43 14 43 14 60 -4z m-698 -38 c-4 -17 -1
-26 10 -30 26 -10 34 -7 34 14 0 12 7 20 16 20 12 0 15 -6 11 -22 -3 -13 -9
-40 -12 -60 -5 -24 -13 -38 -22 -38 -11 0 -13 7 -8 29 5 23 2 29 -14 34 -25 6
-31 0 -31 -30 0 -14 -6 -23 -15 -23 -18 0 -18 1 -4 73 8 38 17 57 26 57 11 0
13 -7 9 -24z m569 -26 c0 -29 -4 -36 -22 -38 -17 -3 -23 -10 -23 -28 0 -44
-27 -27 -35 22 -3 26 -9 52 -12 59 -5 15 19 24 62 22 27 -2 30 -5 30 -37z
m-425 6 c0 -51 -14 -106 -28 -106 -11 0 -13 8 -8 38 3 20 6 47 6 60 0 13 6 22
15 22 8 0 15 -6 15 -14z m134 -2 c19 -18 20 -26 6 -40 -6 -6 -6 -21 -1 -42 8
-28 7 -32 -10 -32 -14 0 -19 7 -19 25 0 18 -5 25 -20 25 -15 0 -20 -7 -20 -25
0 -16 -6 -25 -15 -25 -17 0 -18 15 -9 84 6 44 8 46 40 46 18 0 40 -7 48 -16z
m148 -44 c25 -57 26 -60 7 -60 -10 0 -19 5 -19 10 0 6 -11 10 -25 10 -16 0
-25 -6 -25 -15 0 -8 -7 -15 -16 -15 -10 0 -14 6 -10 18 3 9 10 38 17 65 16 66
37 62 71 -13z"/>
<path d="M1417 2934 c-15 -16 -6 -34 18 -34 24 0 25 -2 25 -65 0 -58 2 -65 20
-65 18 0 20 7 20 68 0 65 1 69 23 68 13 -1 22 5 22 14 0 11 -15 16 -60 18 -34
2 -64 0 -68 -4z"/>
<path d="M1308 2924 c-3 -3 -2 -22 3 -42 16 -68 12 -92 -15 -92 -25 0 -36 21
-36 72 0 40 -9 56 -29 51 -18 -5 -17 -30 4 -121 7 -31 50 -46 87 -31 40 17 44
40 22 147 -4 20 -23 29 -36 16z"/>
<path d="M1617 2914 c-3 -11 -8 -46 -12 -80 l-7 -61 48 -7 c66 -9 74 -8 74 8
0 8 -16 16 -40 20 -27 4 -40 11 -40 22 0 13 8 15 40 12 33 -3 40 0 40 14 0 14
-8 18 -35 18 -28 0 -35 4 -35 20 0 20 13 21 67 5 10 -3 28 23 21 30 -2 2 -28
6 -60 10 -49 6 -57 5 -61 -11z"/>
<path d="M1068 2872 c-52 -17 -67 -46 -21 -40 25 3 28 -1 45 -59 14 -47 22
-61 33 -57 19 8 19 21 0 75 -17 47 -14 69 10 69 8 0 15 7 15 15 0 18 -21 18
-82 -3z"/>
<path d="M1933 2850 c-25 -10 -53 -58 -53 -90 0 -32 44 -70 80 -70 82 0 112
118 39 155 -32 17 -35 17 -66 5z m67 -45 c15 -18 2 -64 -23 -79 -37 -23 -71
30 -47 73 13 24 52 28 70 6z"/>
<path d="M933 2822 c-8 -5 -3 -27 18 -77 35 -81 34 -79 53 -72 13 5 10 18 -16
82 -33 77 -35 80 -55 67z"/>
<path d="M805 2759 c-60 -33 -71 -66 -15 -45 11 4 24 -10 44 -46 16 -29 30
-54 31 -56 1 -1 10 0 19 4 15 6 13 13 -14 60 -34 60 -37 74 -16 74 21 0 28 16
13 27 -8 6 -28 0 -62 -18z"/>
<path d="M2097 2717 c-29 -54 -35 -72 -25 -79 20 -12 23 -10 35 23 l12 31 30
-18 c23 -14 34 -15 42 -7 8 8 3 15 -20 27 -17 9 -31 21 -31 26 0 18 20 21 42
6 27 -19 48 -21 48 -3 0 6 -21 24 -48 39 l-47 26 -38 -71z"/>
<path d="M1355 2740 c-14 -6 -5 -9 35 -9 30 0 62 4 70 9 19 12 -76 12 -105 0z"/>
<path d="M1515 2739 c22 -4 63 -8 90 -7 l50 0 -40 9 c-22 4 -62 8 -90 7 l-50
0 40 -9z"/>
<path d="M1729 2715 c35 -8 87 -21 115 -29 27 -8 52 -14 54 -12 1 2 -18 13
-44 25 -29 14 -73 24 -118 27 l-71 4 64 -15z"/>
<path d="M1161 2705 c-18 -8 -40 -15 -48 -15 -17 0 -146 -54 -183 -76 -14 -8
-41 -22 -60 -31 -19 -8 -52 -30 -72 -49 -21 -18 -54 -44 -75 -57 -84 -53 -249
-241 -300 -340 -76 -150 -96 -193 -104 -222 -63 -232 -74 -289 -61 -311 10
-16 11 -13 12 19 0 53 27 178 57 267 100 302 324 562 609 707 94 48 211 92
299 112 l40 9 -40 1 c-22 0 -55 -6 -74 -14z"/>
<path d="M1400 2704 c-574 -53 -1030 -494 -1100 -1064 -14 -116 -13 -195 6
-317 56 -383 294 -717 636 -893 222 -115 460 -159 698 -130 460 57 847 368
999 802 91 261 88 555 -8 819 -141 385 -497 686 -901 763 -82 16 -258 26 -330
20z m296 -49 c233 -40 440 -144 612 -309 34 -32 62 -63 62 -68 0 -4 -14 -8
-30 -8 -22 0 -42 -11 -67 -35 l-36 -35 -212 0 c-183 0 -214 2 -226 16 -7 9
-24 20 -37 25 -23 9 -23 10 -8 34 15 23 15 28 1 55 -12 23 -22 30 -45 30 -26
0 -30 3 -30 29 0 37 -44 75 -75 66 -11 -3 -28 -9 -37 -12 -11 -3 -21 5 -32 26
-14 26 -23 31 -51 31 -25 0 -37 -6 -46 -22 -17 -32 -29 -38 -57 -27 -37 14
-82 -16 -82 -57 0 -28 -4 -32 -34 -38 -40 -8 -50 -28 -40 -81 3 -20 2 -35 -3
-35 -6 0 -20 -9 -33 -20 -21 -19 -37 -20 -231 -20 -208 0 -209 0 -224 23 -17
26 -55 47 -85 47 -11 0 -20 4 -20 9 0 19 135 139 217 194 158 105 300 158 503
190 65 11 266 6 346 -8z m-175 -207 c16 -37 48 -48 69 -23 15 18 29 19 53 1
14 -11 15 -19 8 -39 -15 -39 7 -62 51 -53 30 5 36 3 41 -13 3 -12 -3 -27 -14
-37 -10 -9 -19 -28 -19 -41 0 -19 5 -23 30 -23 23 0 33 -6 40 -25 l10 -25 242
2 242 3 8 31 c9 35 33 46 76 35 32 -9 52 -43 52 -88 l0 -33 -358 0 -357 0 -1
58 c-1 174 -191 267 -316 154 -51 -46 -68 -85 -68 -157 l0 -55 -364 0 -364 0
6 48 c5 55 14 68 48 76 34 9 77 -14 84 -44 l6 -25 237 -3 237 -2 6 24 c4 17
14 26 32 28 34 4 40 33 13 62 -27 29 -13 49 36 50 l38 1 0 43 c0 52 25 74 54
48 33 -30 71 -13 71 31 0 19 5 23 28 23 22 0 31 -7 43 -32z m-107 -113 c-25
-19 -15 -19 29 0 20 8 39 15 42 15 3 0 5 -32 5 -72 l0 -72 -49 48 c-27 26 -48
53 -47 60 3 19 16 36 29 36 6 0 2 -7 -9 -15z m162 -2 c13 -5 15 -3 9 8 -5 8
-5 11 1 6 5 -5 9 -12 9 -15 0 -4 3 -12 7 -18 4 -6 -15 -32 -42 -59 -37 -36
-47 -52 -39 -61 14 -17 3 -34 -22 -34 -23 0 -26 35 -4 44 11 4 15 23 15 77 0
77 0 78 66 52z m76 -46 c8 -15 7 -18 -3 -12 -9 6 -10 3 -5 -11 5 -10 12 -31
16 -46 l9 -28 -72 0 -71 0 49 50 c26 27 52 47 57 44 14 -9 9 9 -9 30 -17 20
-17 20 0 7 10 -8 23 -23 29 -34z m-278 22 c-3 -6 18 -35 47 -65 l53 -54 -67 0
c-75 0 -80 6 -51 61 20 39 11 50 -10 12 -8 -15 -15 -24 -16 -19 0 10 40 76 46
76 3 0 2 -5 -2 -11z m1094 -146 c78 -112 162 -313 186 -451 21 -118 18 -328
-5 -445 -93 -465 -467 -833 -936 -923 -107 -20 -300 -23 -403 -5 -234 40 -450
148 -615 308 -76 73 -105 111 -45 59 25 -22 53 -47 62 -57 30 -30 144 -108
181 -124 20 -8 52 -26 72 -39 71 -49 256 -106 385 -121 99 -11 261 -6 355 10
93 16 257 72 308 104 17 11 55 31 82 44 104 49 312 241 372 344 31 54 28 67
-38 169 -101 154 -144 282 -137 412 4 83 11 92 74 92 29 0 44 5 48 16 5 13 17
446 16 602 0 39 12 41 38 5z m-1907 15 c0 -2 3 -142 6 -313 2 -170 8 -313 12
-317 3 -4 33 -10 66 -14 33 -4 63 -12 67 -18 14 -20 8 -167 -8 -229 -23 -88
-64 -173 -120 -247 -74 -98 -85 -117 -77 -137 15 -40 -29 11 -57 66 -81 163
-120 330 -120 522 0 189 31 342 103 499 43 94 122 210 128 188z m861 -61 c-29
-29 -49 -56 -45 -60 4 -4 31 16 60 45 l53 52 0 -73 c0 -80 -1 -81 -71 -45 -15
7 -29 11 -31 8 -7 -7 -58 55 -58 69 1 7 8 -1 16 -16 21 -38 30 -27 10 12 -29
55 -24 61 51 61 l67 0 -52 -53z m238 24 c-8 -27 -28 -71 -33 -71 -2 0 -25 23
-52 50 l-49 50 71 0 72 0 -9 -29z m-96 -40 l48 -49 -28 -15 c-73 -37 -74 -36
-74 42 0 39 1 71 3 71 1 0 25 -22 51 -49z m-219 -36 c37 -49 105 -85 160 -85
42 0 110 28 110 45 0 6 10 24 23 40 15 21 20 24 16 10 -6 -20 -5 -20 10 -1 9
11 16 22 16 25 0 3 163 5 363 4 255 -1 362 -4 361 -12 -1 -6 -2 -128 -2 -271
l-2 -259 -62 -3 -62 -3 -9 -40 c-10 -49 -2 -163 19 -242 21 -83 54 -151 124
-254 33 -50 60 -93 60 -95 0 -18 -125 -166 -195 -231 -317 -296 -769 -386
-1181 -235 -43 16 -97 38 -119 50 l-40 20 105 51 c196 94 384 129 578 110 113
-12 272 -61 368 -115 77 -43 97 -40 26 4 -32 19 -64 51 -87 87 -21 31 -64 79
-96 108 -33 28 -59 58 -59 65 0 8 -7 28 -15 45 -8 19 -16 69 -17 122 l-3 89
-45 11 -45 11 -12 79 c-7 44 -14 97 -15 118 -3 40 -20 56 -24 22 -3 -30 -34
-168 -38 -173 -6 -5 -66 119 -66 135 0 19 -34 93 -42 93 -5 0 -8 -7 -8 -15 0
-8 -5 -15 -11 -15 -6 0 -9 -6 -6 -14 3 -8 -1 -38 -8 -67 -8 -29 -11 -57 -8
-63 3 -6 2 -8 -2 -3 -10 8 -45 -21 -45 -37 -1 -26 -22 -39 -81 -50 l-64 -11 0
-80 c0 -71 -3 -84 -28 -120 -15 -22 -36 -70 -48 -107 -16 -55 -26 -72 -57 -94
-31 -22 -82 -81 -144 -166 -12 -16 -19 -13 -83 29 -77 51 -252 221 -302 294
l-32 46 55 69 c75 94 110 154 139 248 28 87 42 240 27 291 -8 29 -10 30 -80
33 l-72 3 0 272 0 272 363 0 362 0 30 -40z m269 -875 c-2 -16 1 -30 6 -30 6 0
10 -10 9 -22 0 -13 -3 -17 -6 -9 -5 11 -7 11 -14 0 -6 -9 -9 -1 -10 26 -2 79
-17 -5 -18 -103 -1 -88 -2 -92 -20 -82 -11 5 -29 10 -40 10 -20 0 -21 6 -21
95 l0 95 26 -10 c38 -15 55 -12 53 8 -3 31 1 43 11 37 6 -3 10 1 10 10 0 9 4
14 9 11 5 -3 7 -19 5 -36z m-84 -7 c0 -5 -37 -9 -83 -9 -58 -1 -72 0 -47 6 47
10 130 12 130 3z m-40 -103 c0 -90 0 -91 -21 -79 -12 6 -42 9 -65 6 l-44 -5 0
74 c0 81 -2 79 80 87 19 2 38 5 43 5 4 1 7 -39 7 -88z m-140 -19 l0 -58 -60
-20 -61 -20 3 71 3 71 35 6 c81 15 80 15 80 -50z m284 43 c13 -5 16 -22 16
-85 l0 -79 -30 0 -30 0 0 85 c0 88 4 95 44 79z m86 -99 l5 -81 -27 4 c-26 4
-27 6 -30 83 l-3 80 25 -3 c24 -3 25 -7 30 -83z m-221 -31 c61 -21 82 -34 118
-74 26 -29 68 -60 101 -76 31 -16 72 -39 91 -53 33 -25 134 -142 127 -148 -5
-6 -129 44 -190 76 -32 17 -64 31 -71 31 -8 0 -49 30 -91 66 -83 70 -159 114
-197 114 -33 0 -127 -99 -127 -134 0 -16 -7 -27 -20 -31 -22 -7 -74 -65 -65
-73 3 -3 12 4 21 16 8 12 28 29 45 37 20 11 29 23 29 40 0 25 66 107 101 126
27 14 113 -31 202 -105 46 -38 95 -70 117 -76 22 -6 42 -15 45 -20 3 -5 -9 -4
-27 1 -18 6 -87 13 -153 16 -177 8 -360 -31 -517 -111 -38 -19 -68 -32 -68
-29 0 17 95 113 164 168 91 70 159 139 202 204 25 39 51 59 78 60 5 1 43 -11
85 -25z m-193 -52 c-44 -58 -155 -167 -162 -159 -11 10 41 130 69 158 27 27
124 73 135 64 2 -2 -17 -30 -42 -63z m399 -12 c21 -8 55 -60 55 -85 0 -11 -96
44 -119 69 l-24 26 31 0 c17 0 42 -4 57 -10z"/>
<path d="M1310 2057 c0 -10 -4 -16 -9 -13 -5 3 -15 -2 -22 -11 -12 -15 -12
-16 5 -10 15 6 17 4 13 -13 -6 -22 3 -26 20 -9 12 12 53 -8 53 -25 0 -5 -9 -1
-20 9 -18 16 -20 16 -26 1 -4 -9 -4 -20 0 -23 3 -4 6 -1 6 5 0 22 15 12 29
-19 l14 -32 16 22 c17 23 34 19 24 -5 -3 -9 1 -14 12 -14 9 0 13 5 10 10 -3 6
-1 10 4 10 12 0 14 -11 5 -34 -4 -10 -18 -16 -40 -16 -54 0 -157 -39 -210 -78
-167 -127 -126 -387 61 -385 22 0 83 15 136 32 118 38 158 39 218 4 91 -53
162 -31 214 67 79 151 -27 314 -229 352 -88 16 -87 16 -82 43 5 22 2 25 -23
25 -16 0 -29 5 -29 10 0 6 -5 10 -11 10 -5 0 -7 -5 -4 -11 11 -17 -68 27 -88
49 -11 12 -26 18 -35 15 -13 -4 -14 -3 -3 5 10 7 11 14 2 28 -10 18 -10 18
-11 1z m272 -188 c204 -44 297 -186 222 -337 -26 -53 -63 -82 -104 -82 -12 0
-45 10 -73 22 l-52 23 35 6 c22 4 -2 7 -61 8 l-97 1 -4 29 c-4 25 2 34 38 63
24 18 50 50 60 71 9 20 21 37 26 37 11 0 10 -17 -2 -25 -5 -3 -9 -31 -7 -60 2
-44 5 -55 19 -55 13 0 18 11 20 53 l3 52 23 -38 c12 -21 20 -43 17 -48 -4 -5
3 -9 14 -9 30 0 34 16 14 52 -10 18 -20 48 -23 67 -4 28 -13 39 -45 55 -85 44
-95 47 -102 30 -4 -11 2 -23 16 -34 21 -15 22 -19 10 -58 -8 -29 -27 -54 -59
-81 l-48 -41 1 36 c1 29 -6 42 -31 65 -97 87 -221 -53 -126 -142 21 -20 39
-24 112 -29 l87 -5 -108 -29 c-94 -26 -112 -28 -146 -17 -71 21 -120 108 -105
189 21 117 118 199 279 235 40 9 145 7 197 -4z m-2 -119 c56 -28 60 -33 60
-65 0 -18 5 -37 10 -40 6 -3 10 -11 10 -18 0 -15 -15 1 -33 35 -19 37 -41 21
-40 -28 1 -25 -2 -33 -8 -23 -14 22 -11 51 7 71 14 15 15 20 4 33 -7 9 -19 14
-27 11 -7 -3 -13 1 -13 8 0 8 -10 21 -22 29 -37 26 -12 19 52 -13z m-201 -86
c38 -32 43 -69 7 -60 -23 6 -48 -13 -58 -43 -2 -7 -10 5 -18 28 -10 32 -18 41
-36 41 -30 0 -22 25 15 45 38 20 56 18 90 -11z m-84 -81 c24 -47 63 -74 50
-34 -7 24 15 42 43 34 27 -7 27 -11 0 -40 -43 -46 -138 -16 -138 44 0 31 29
28 45 -4z m135 -53 c0 -15 -7 -20 -27 -20 l-28 0 25 20 c31 24 30 24 30 0z"/>
<path d="M1629 2044 c-7 -9 -8 -14 -1 -14 6 0 12 5 14 10 2 7 9 6 18 -2 8 -7
13 -12 11 -10 -3 1 -16 -9 -31 -23 -14 -13 -44 -34 -65 -45 -22 -12 -30 -19
-17 -16 14 3 22 -1 22 -10 0 -8 -6 -11 -17 -7 -11 4 -14 3 -9 -5 11 -18 36
-14 36 4 0 14 3 14 15 4 17 -14 21 0 4 17 -8 8 -7 13 2 19 7 4 14 3 17 -4 5
-15 32 -16 32 -1 0 5 5 7 10 4 6 -3 10 -2 10 4 0 5 -4 13 -10 16 -5 3 -10 11
-10 18 0 8 3 8 12 -1 7 -7 19 -12 28 -11 10 0 11 2 3 6 -7 2 -13 11 -13 20 0
10 6 12 23 8 15 -5 19 -4 12 3 -5 6 -27 15 -47 20 -29 8 -40 7 -49 -4z"/>
<path d="M1101 2002 c-2 -15 -4 -48 -5 -74 l-1 -48 -113 0 c-124 0 -133 -6
-72 -47 19 -14 48 -23 70 -23 40 0 119 36 131 60 21 42 31 99 22 126 -12 37
-27 40 -32 6z m14 -74 c-13 -30 -14 -31 -14 -8 -1 14 2 36 6 49 5 19 8 20 14
8 6 -9 3 -28 -6 -49z m-48 -75 c-10 -10 -38 -18 -74 -21 -48 -3 -63 0 -83 17
l-25 20 100 1 c93 0 98 -1 82 -17z"/>
<path d="M1870 1999 c-10 -24 -10 -38 0 -72 18 -63 23 -69 70 -94 55 -29 107
-29 150 0 61 41 52 47 -72 47 l-113 0 -1 48 c-2 62 -7 102 -15 102 -4 0 -12
-14 -19 -31z m29 -69 c1 -20 -1 -22 -9 -10 -5 8 -9 29 -9 45 0 26 2 27 9 10 5
-11 9 -31 9 -45z m191 -81 c-20 -17 -35 -20 -83 -17 -36 3 -64 11 -74 21 -16
16 -11 17 82 17 l100 -1 -25 -20z"/>
<path d="M888 1642 c-49 -37 -83 -69 -77 -71 6 -2 21 6 33 18 28 27 45 28 21
1 -12 -13 -14 -20 -5 -20 10 0 10 -3 0 -15 -10 -12 -10 -15 1 -15 9 -1 6 -8
-9 -19 -13 -12 -20 -25 -16 -35 8 -20 13 -20 36 1 10 9 18 11 18 5 0 -6 -16
-117 -35 -246 -19 -130 -35 -240 -35 -246 0 -12 73 -50 95 -50 32 0 95 40 95
60 0 11 -13 129 -30 262 -16 132 -30 249 -30 259 0 10 26 38 60 64 33 25 60
50 60 56 0 5 -29 -14 -65 -42 -36 -28 -65 -48 -65 -44 0 4 10 15 23 26 12 10
17 18 10 19 -6 0 -15 -5 -19 -11 -4 -8 -9 -7 -15 2 -6 10 -12 9 -29 -6 -14
-12 -17 -21 -9 -26 8 -4 8 -9 1 -13 -6 -4 -9 -13 -6 -20 3 -7 -6 -20 -20 -30
-38 -24 -45 -19 -11 9 17 13 24 24 16 25 -11 0 -11 3 -1 15 10 12 10 15 0 15
-9 0 -7 7 5 20 12 13 14 20 5 20 -10 0 -10 3 0 15 7 8 17 15 22 15 6 0 5 -7
-2 -15 -19 -23 4 -18 25 5 10 11 23 20 28 20 6 0 2 -9 -8 -20 -10 -11 -14 -20
-8 -20 5 0 18 9 28 20 12 13 14 20 5 20 -10 0 -10 3 0 15 7 8 17 15 22 15 6 0
5 -7 -2 -15 -7 -8 -8 -15 -2 -15 5 0 15 6 21 14 10 12 8 16 -11 22 -13 3 -25
10 -28 14 -3 5 -44 -22 -92 -58z m58 -232 c2 -22 -1 -40 -5 -40 -4 0 -8 21 -9
46 0 55 10 51 14 -6z m-39 -173 c-1 -31 -2 -32 -18 -19 -13 12 -15 20 -8 34
15 28 27 21 26 -15z m48 13 c4 -13 -1 -27 -14 -42 -18 -18 -21 -19 -21 -5 0 9
5 17 10 17 6 0 8 11 4 25 -7 30 12 35 21 5z m-49 -106 c2 -29 0 -34 -6 -19 -5
11 -9 16 -9 11 -1 -5 -8 -3 -16 4 -11 9 -12 16 -2 31 18 28 31 18 33 -27z m69
-1 c19 -45 19 -59 0 -43 -9 7 -14 19 -11 27 3 8 2 12 -3 9 -13 -9 -34 22 -27
40 8 21 24 9 41 -33z m-71 -80 c-24 -38 -55 -12 -33 29 10 19 12 19 27 4 13
-12 14 -21 6 -33z m64 -6 c-9 -18 -11 -18 -29 -1 -18 16 -18 18 -3 36 16 17
18 17 30 1 8 -13 9 -23 2 -36z m-4 -74 c-10 -7 -24 -13 -32 -13 -13 0 -12 3 1
18 21 23 22 39 2 22 -13 -11 -15 -8 -15 16 l0 28 30 -29 c29 -27 30 -31 14
-42z m-54 -16 c0 -4 -14 0 -31 8 -26 14 -28 19 -18 31 11 14 15 13 31 -8 9
-13 18 -26 18 -31z"/>
<path d="M1010 1639 c-19 -15 -30 -28 -25 -28 13 0 71 47 65 53 -3 2 -21 -9
-40 -25z"/>
<path d="M1938 1582 l-87 -67 -1 -277 c0 -212 -3 -277 -12 -281 -19 -6 -12
-10 95 -44 l97 -31 87 31 c86 31 87 32 55 41 l-32 9 0 327 0 327 -42 12 c-24
7 -50 14 -58 17 -8 2 -54 -27 -102 -64z m158 32 c20 -5 24 -12 24 -44 l0 -38
-38 10 c-35 9 -37 12 -38 49 -1 31 2 39 13 35 8 -4 26 -9 39 -12z m-76 -28 c0
-31 -6 -38 -52 -67 -29 -17 -63 -38 -75 -47 -22 -13 -23 -13 -23 11 0 18 17
39 68 80 37 31 70 56 75 56 4 1 7 -14 7 -33z m75 -62 c17 -4 24 -14 27 -40 l4
-35 -40 7 c-45 7 -58 14 -38 21 14 5 16 33 2 33 -5 0 -10 7 -10 16 0 11 5 14
16 10 9 -3 26 -9 39 -12z m-75 -28 c0 -31 -5 -37 -69 -75 -38 -22 -72 -41 -75
-41 -3 0 -6 15 -6 33 1 29 7 36 68 74 37 23 70 42 75 42 4 1 7 -14 7 -33z m75
-56 c25 0 35 -23 28 -64 -5 -23 -10 -26 -44 -26 l-39 0 0 51 c0 43 3 50 16 45
9 -3 26 -6 39 -6z m-75 -44 l0 -44 -75 -25 -75 -26 0 29 c0 24 10 34 68 68 37
23 70 41 75 42 4 0 7 -20 7 -44z m108 -96 c-3 -36 -6 -40 -30 -40 -14 0 -33
-3 -42 -6 -13 -5 -16 2 -16 40 l0 46 45 0 45 0 -2 -40z m-108 -8 l0 -39 -64
-11 c-86 -16 -86 -16 -86 17 0 27 5 31 58 49 85 30 92 29 92 -16z m103 -68 c9
-49 -2 -64 -44 -64 -39 0 -39 0 -39 39 0 37 2 40 33 44 17 2 35 5 38 5 4 1 9
-10 12 -24z m-103 -23 c0 -45 -11 -51 -97 -51 -52 0 -53 0 -53 30 0 23 5 31
23 34 12 3 40 9 62 14 64 16 65 15 65 -27z m110 -85 c0 -29 -4 -35 -27 -40
-16 -4 -36 -9 -45 -12 -15 -5 -18 2 -18 40 l0 46 45 0 c44 0 45 0 45 -34z
m-112 -11 c-2 -20 -6 -35 -10 -35 -5 0 -37 0 -73 0 l-65 0 0 29 c0 34 9 38 93
40 l58 1 -3 -35z m-57 -55 l59 0 0 -36 c0 -29 -3 -35 -16 -30 -9 3 -42 6 -75
6 l-59 0 0 36 c0 29 3 35 16 30 9 -3 42 -6 75 -6z m169 -15 c0 -19 -7 -26 -37
-34 -52 -15 -53 -15 -53 18 0 31 11 38 63 40 22 1 27 -3 27 -24z m0 -47 c0 -7
-11 -18 -25 -25 -22 -10 -25 -9 -25 9 0 10 4 17 9 13 5 -3 12 -1 16 5 9 14 25
13 25 -2z m-160 -26 c0 -9 -6 -12 -16 -8 -9 3 -22 6 -30 6 -8 0 -14 4 -14 8 0
5 14 9 30 9 19 0 30 -5 30 -15z m98 1 c-5 -25 -28 -28 -28 -4 0 12 6 21 16 21
9 0 14 -7 12 -17z m-48 -12 c0 -14 -5 -18 -20 -14 -11 3 -20 12 -20 19 0 8 9
14 20 14 13 0 20 -7 20 -19z"/>
<path d="M1395 620 c-27 -30 -13 -70 25 -70 22 0 28 -4 23 -16 -4 -11 -13 -13
-37 -8 -27 6 -29 5 -17 -10 18 -22 58 -20 71 3 16 31 12 86 -8 104 -24 22 -35
21 -57 -3z m53 -27 c5 -17 -26 -29 -40 -15 -6 6 -7 15 -3 22 9 14 37 9 43 -7z"/>
<path d="M1530 620 c-37 -37 -20 -120 23 -120 29 0 47 18 47 46 0 28 -24 47
-49 39 -16 -5 -20 -3 -15 10 5 12 14 14 35 10 33 -8 39 9 10 25 -26 13 -28 13
-51 -10z m44 -59 c9 -14 -4 -41 -20 -41 -8 0 -14 10 -14 25 0 25 23 35 34 16z"/>
<path d="M1283 616 c-26 -12 -30 -26 -8 -26 11 0 15 -12 15 -45 0 -33 4 -45
15 -45 12 0 15 14 15 65 0 68 -1 69 -37 51z"/>
<path d="M1663 595 c-30 -46 -29 -65 2 -65 16 0 25 -6 25 -15 0 -21 27 -19 32
3 2 9 2 38 0 65 -5 58 -27 63 -59 12z"/>
<path d="M636 2649 c-29 -23 -34 -60 -10 -80 13 -11 23 -10 60 4 28 10 46 12
50 6 9 -15 -27 -50 -45 -44 -9 2 -22 1 -30 -4 -11 -7 -9 -11 9 -21 45 -24 108
25 96 75 -8 31 -38 40 -75 21 -37 -20 -51 -20 -51 -2 0 18 15 28 44 31 11 1
25 3 30 4 15 2 -16 31 -34 31 -9 0 -29 -9 -44 -21z"/>
<path d="M2035 2612 c177 -87 338 -218 447 -364 27 -38 51 -68 53 -68 11 0
-47 85 -95 140 -59 68 -69 78 -173 169 -67 59 -238 153 -302 166 -16 4 15 -16
70 -43z"/>
<path d="M2367 2623 c-4 -3 0 -14 9 -24 15 -17 14 -22 -25 -67 -33 -41 -38
-52 -27 -61 12 -10 36 12 93 88 1 2 11 -4 22 -13 14 -13 21 -14 26 -6 5 8 -10
27 -36 51 -46 40 -52 43 -62 32z"/>
<path d="M514 2547 c-4 -11 6 -26 30 -48 20 -17 35 -34 32 -36 -2 -2 -30 3
-61 12 -87 26 -93 8 -22 -62 46 -47 59 -55 69 -45 11 11 6 20 -24 48 -21 19
-38 36 -38 38 0 2 27 -4 60 -14 89 -27 95 -9 20 65 -47 47 -61 55 -66 42z"/>
<path d="M2468 2445 l-57 -53 38 -43 c24 -28 42 -40 50 -35 9 6 6 16 -14 36
-17 18 -25 35 -22 44 9 23 23 20 45 -9 21 -26 42 -33 42 -13 0 6 -10 22 -22
35 -17 18 -19 26 -10 35 9 9 18 4 40 -22 34 -40 54 -25 24 18 -47 66 -51 66
-114 7z"/>
<path d="M375 2392 c-6 -17 18 -43 86 -93 22 -15 29 -16 38 -6 8 11 -4 25 -53
65 -54 43 -65 48 -71 34z"/>
<path d="M2588 2303 c-54 -34 -56 -94 -4 -128 30 -20 74 -12 56 10 -6 8 -21
15 -33 17 -47 7 -16 88 34 88 24 0 42 -26 34 -49 -9 -29 3 -45 21 -30 22 18
17 63 -9 87 -28 26 -62 28 -99 5z"/>
<path d="M357 2136 l-16 -35 -55 30 c-51 28 -76 31 -76 9 0 -8 127 -80 140
-80 10 1 51 91 45 100 -11 17 -21 11 -38 -24z"/>
<path d="M2586 2087 c25 -48 61 -129 80 -180 21 -58 33 -82 34 -65 0 15 -4 30
-10 33 -5 3 -10 15 -10 26 0 11 -18 58 -40 105 -22 47 -40 88 -40 92 0 4 -13
23 -30 42 -27 31 -25 25 16 -53z"/>
<path d="M2701 2129 c-77 -35 -75 -34 -67 -54 5 -14 8 -14 37 0 17 9 32 15 34
13 5 -6 25 -47 25 -52 0 -2 -13 -7 -30 -11 -21 -5 -30 -13 -30 -26 0 -25 3
-25 87 13 63 27 71 33 62 50 -9 17 -11 17 -35 2 -13 -9 -26 -15 -27 -13 -2 2
-8 16 -14 30 -10 23 -8 26 18 36 20 8 27 16 23 27 -8 20 -7 21 -83 -15z"/>
<path d="M148 1992 c-7 -26 120 -132 133 -111 5 8 3 19 -5 29 -18 20 -3 60 23
60 10 0 21 9 24 20 5 19 0 20 -83 20 -76 0 -88 -2 -92 -18z m102 -19 c0 -5 -4
-14 -8 -21 -7 -9 -13 -8 -27 8 -18 20 -18 20 8 20 15 0 27 -3 27 -7z"/>
<path d="M2825 1955 c-5 -2 -35 -11 -66 -20 -47 -13 -56 -19 -52 -35 5 -17 8
-17 45 -4 63 22 65 17 19 -30 -64 -66 -53 -79 43 -52 58 16 76 25 76 38 0 22
-6 22 -59 3 -22 -8 -41 -11 -41 -7 0 5 18 25 39 46 46 45 44 78 -4 61z"/>
<path d="M100 1832 c0 -17 9 -22 46 -28 51 -7 48 -15 -14 -33 -39 -11 -63 -34
-49 -47 5 -5 133 -34 149 -34 5 0 8 8 8 18 0 14 -12 21 -47 28 l-48 10 58 19
c40 13 57 24 57 36 0 13 -14 20 -57 29 -32 6 -68 14 -80 17 -18 4 -23 1 -23
-15z"/>
<path d="M2701 1800 c0 -8 6 -42 14 -75 13 -58 13 -59 14 -19 1 23 -6 57 -14
75 -8 19 -14 27 -14 19z"/>
<path d="M2778 1720 c-24 -25 -29 -36 -23 -58 15 -62 82 -86 139 -49 20 14 26
25 26 55 0 80 -84 110 -142 52z m108 -37 c5 -19 2 -30 -11 -40 -36 -26 -85
-10 -85 27 0 25 21 40 57 40 27 0 34 -5 39 -27z"/>
<path d="M100 1628 c-53 -28 -52 -106 1 -134 61 -31 129 4 129 67 0 58 -74 96
-130 67z m90 -48 c17 -32 -4 -60 -45 -60 -41 0 -62 28 -45 60 8 14 21 20 45
20 24 0 37 -6 45 -20z"/>
<path d="M2731 1595 c0 -22 4 -47 9 -55 13 -19 13 46 0 75 -7 16 -9 11 -9 -20z"/>
<path d="M248 1498 c-3 -18 -2 -44 3 -58 5 -19 7 -11 8 33 1 63 -4 75 -11 25z"/>
<path d="M2770 1470 c0 -47 3 -60 15 -60 11 0 15 11 15 40 l0 40 65 0 c58 0
65 2 65 20 0 18 -7 20 -80 20 l-80 0 0 -60z"/>
<path d="M2731 1385 c1 -46 1 -48 11 -22 7 20 7 35 0 50 -9 18 -11 14 -11 -28z"/>
<path d="M84 1413 c-16 -3 -20 -9 -17 -24 4 -13 11 -18 20 -15 8 3 44 6 79 6
57 0 64 2 64 20 0 18 -6 20 -62 19 -35 -1 -73 -4 -84 -6z"/>
<path d="M256 1380 c-4 -21 -3 -47 3 -63 6 -16 11 -40 11 -55 0 -25 23 -102
58 -197 8 -22 32 -75 53 -119 22 -43 39 -83 39 -90 -1 -6 -30 -42 -65 -80 -57
-61 -75 -86 -61 -86 2 0 36 36 76 80 l72 80 -40 78 c-68 131 -122 312 -135
452 l-3 35 -8 -35z"/>
<path d="M2800 1353 c-57 -22 -70 -96 -24 -132 28 -22 74 -27 104 -11 40 21
45 97 8 128 -18 15 -68 23 -88 15z m70 -47 c6 -8 10 -25 8 -38 -6 -44 -98 -33
-98 11 0 38 64 57 90 27z"/>
<path d="M84 1314 c-17 -7 8 -129 27 -129 9 0 13 9 11 26 -2 25 1 27 60 35 45
6 63 13 63 24 0 17 -35 19 -97 7 -36 -8 -38 -7 -38 18 0 25 -4 28 -26 19z"/>
<path d="M2699 1203 c-9 -38 -15 -69 -14 -71 8 -10 36 75 33 103 -3 31 -5 27
-19 -32z"/>
<path d="M206 1129 c-27 -22 -56 -44 -64 -48 -9 -5 -12 -16 -7 -30 6 -19 13
-21 91 -21 46 0 84 2 84 4 0 18 -14 34 -26 29 -9 -3 -18 5 -24 23 -9 23 -8 31
5 40 14 11 12 44 -4 44 -3 -1 -28 -19 -55 -41z m24 -49 c0 -15 -7 -20 -27 -20
l-28 1 24 19 c29 25 31 25 31 0z"/>
<path d="M2727 1130 c-18 -14 -27 -31 -27 -50 0 -16 -4 -32 -10 -35 -19 -12
-10 -22 31 -34 23 -7 42 -11 43 -9 12 19 23 57 19 62 -12 12 -33 6 -33 -9 0
-21 -17 -19 -23 4 -7 29 11 51 43 51 52 0 80 -54 42 -82 -30 -22 -36 -38 -13
-38 56 0 82 87 38 128 -35 33 -77 38 -110 12z"/>
<path d="M2650 1049 c0 -7 -21 -53 -46 -104 l-46 -93 63 -78 c82 -104 79 -100
79 -83 0 8 -8 24 -17 35 -97 109 -108 147 -65 215 26 41 51 119 37 119 -3 0
-5 -5 -5 -11z"/>
<path d="M258 945 c-49 -25 -66 -39 -62 -50 8 -19 7 -19 54 5 22 11 40 18 40
15 0 -4 -13 -25 -29 -49 -21 -30 -27 -46 -20 -58 8 -14 17 -11 76 20 38 19 69
36 71 37 1 1 0 10 -4 19 -6 15 -11 14 -51 -9 -25 -14 -48 -25 -50 -25 -3 0 11
22 31 50 20 28 33 56 30 65 -8 20 -8 20 -86 -20z"/>
<path d="M2626 915 c-4 -10 3 -20 20 -27 15 -7 41 -34 59 -61 31 -45 34 -47
44 -29 8 15 6 23 -9 37 -29 26 -25 35 15 35 19 0 35 2 35 4 0 2 3 11 6 20 5
13 -2 14 -43 9 -35 -4 -58 -1 -81 11 -38 20 -38 20 -46 1z"/>
<path d="M815 370 c-9 -15 4 -30 26 -30 25 0 25 16 0 30 -13 7 -22 7 -26 0z"/>
<path d="M1870 230 c0 -22 1 -23 24 -14 23 9 20 34 -4 34 -13 0 -20 -7 -20
-20z"/>
<path d="M1743 212 c-18 -11 1 -36 22 -28 9 3 15 11 13 18 -5 15 -20 20 -35
10z"/>
<path d="M1440 174 c0 -10 7 -14 22 -12 32 5 35 28 4 28 -17 0 -26 -5 -26 -16z"/>
</g>
</svg>
